<?xml version="1.0"?>
<svg xmlns="http://www.w3.org/2000/svg" xmlns:xlink="http://www.w3.org/1999/xlink" xmlns:svgjs="http://svgjs.com/svgjs" version="1.1" width="512" height="512" x="0" y="0" viewBox="0 0 512 512" style="enable-background:new 0 0 512 512" xml:space="preserve" class=""><g>
<g xmlns="http://www.w3.org/2000/svg">
	<g>
		<path d="M512,256.001c0-37.336-38.521-69.932-99.236-90.555c1.517-7.607,2.768-15.084,3.671-22.367    C423.153,88.885,411.634,50.25,384,34.297c-27.639-15.958-66.857-6.611-110.426,26.301c-5.868,4.433-11.732,9.267-17.574,14.399    c-5.842-5.132-11.706-9.966-17.574-14.399C194.861,27.686,155.639,18.357,128,34.297c-27.634,15.954-39.153,54.588-32.435,108.782    c0.904,7.282,2.154,14.759,3.672,22.367C38.521,186.069,0,218.665,0,256.001c0,37.33,38.508,69.921,99.206,90.544    C86.73,409.401,95.678,459.042,128,477.704c8.81,5.083,18.801,7.602,29.732,7.602c23.352,0,51.014-11.486,80.694-33.903    c5.868-4.433,11.732-9.267,17.574-14.399c5.842,5.132,11.706,9.966,17.574,14.399c29.68,22.421,57.338,33.903,80.694,33.903    c10.931,0,20.921-2.518,29.732-7.602c32.323-18.662,41.271-68.303,28.795-131.16C473.493,325.922,512,293.331,512,256.001z     M285.005,75.732c26.116-19.727,50.213-30.014,69.259-30.014c7.625,0,14.444,1.648,20.255,5.005    c20.32,11.727,28.736,44.542,23.097,90.023c-0.771,6.218-1.79,12.581-3.039,19.063c-22.683-6.38-47.89-11.206-74.922-14.174    c-15.83-21.54-32.571-41.002-49.677-57.704C274.978,83.596,279.992,79.519,285.005,75.732z M139.49,279.321    c5.551,11.219,11.545,22.434,17.973,33.568c6.433,11.139,13.151,21.944,20.096,32.365c-19.921-2.897-38.696-6.853-55.88-11.688    C126.083,316.262,132.037,298.03,139.49,279.321z M139.431,232.779c-7.411-18.53-13.422-36.77-17.845-54.317    c17.21-4.847,36.015-8.811,55.974-11.714c-6.945,10.42-13.663,21.226-20.096,32.365    C150.962,210.372,144.96,221.615,139.431,232.779z M173.889,303.408c-9.074-15.715-17.229-31.57-24.454-47.336    c7.175-15.737,15.315-31.65,24.454-47.479c9.08-15.726,18.739-30.727,28.788-44.875c17.203-1.653,35.061-2.532,53.323-2.532    c18.263,0,36.12,0.88,53.323,2.532c10.05,14.148,19.709,29.149,28.788,44.875c9.14,15.829,17.28,31.742,24.455,47.479    c-7.224,15.766-15.381,31.621-24.455,47.336c-9.079,15.726-18.738,30.727-28.788,44.875c-17.203,1.653-35.06,2.533-53.323,2.533    c-18.262,0-36.12-0.88-53.323-2.533C192.628,334.135,182.969,319.134,173.889,303.408z M354.537,312.89    c6.428-11.134,12.424-22.349,17.973-33.568c7.454,18.708,13.406,36.941,17.811,54.245c-17.184,4.835-35.958,8.791-55.88,11.688    C341.385,334.834,348.105,324.029,354.537,312.89z M354.537,199.112c-6.432-11.139-13.151-21.944-20.095-32.365    c19.957,2.903,38.764,6.867,55.973,11.714c-4.422,17.547-10.434,35.787-17.845,54.317    C367.042,221.615,361.038,210.372,354.537,199.112z M256,100.772c13.003,12.614,25.81,26.956,38.169,42.66    C281.74,142.639,269,142.223,256,142.223c-12.999,0-25.738,0.416-38.168,1.208C230.19,127.728,242.998,113.386,256,100.772z     M137.482,50.723c5.81-3.356,12.625-5.005,20.255-5.005c19.046,0,43.148,10.287,69.259,30.014    c5.014,3.787,10.028,7.863,15.029,12.199c-17.106,16.701-33.847,36.163-49.677,57.704c-27.032,2.968-52.241,7.794-74.922,14.174    c-1.249-6.482-2.269-12.845-3.04-19.063C108.745,95.265,117.162,62.45,137.482,50.723z M18.963,256.001    c0-28.401,33.16-54.361,84.503-71.911c5.91,23.161,14.392,47.385,25.13,71.86c-10.947,24.897-19.336,49.12-25.151,71.955    C52.114,310.356,18.963,284.398,18.963,256.001z M226.995,436.269c-36.57,27.63-69.181,36.75-89.514,25.009    c-24.583-14.192-30.469-55.873-20.016-109.074c22.672,6.374,47.866,11.197,74.882,14.162c15.83,21.541,32.57,41.002,49.677,57.704    C237.023,428.406,232.009,432.482,226.995,436.269z M256,411.23c-13.002-12.615-25.81-26.956-38.168-42.66    c12.43,0.793,25.169,1.208,38.168,1.208c13,0,25.74-0.416,38.169-1.208C281.81,384.274,269.003,398.615,256,411.23z     M374.518,461.278c-20.306,11.75-52.944,2.625-89.514-25.009c-5.013-3.787-10.027-7.863-15.028-12.199    c17.107-16.701,33.847-36.163,49.677-57.704c27.016-2.965,52.21-7.788,74.882-14.162    C404.988,405.406,399.103,447.086,374.518,461.278z M408.556,327.905c-5.816-22.834-14.205-47.058-25.151-71.955    c10.737-24.475,19.219-48.699,25.13-71.86c51.344,17.55,84.502,43.51,84.502,71.911    C493.037,284.398,459.886,310.356,408.556,327.905z" fill="#ffffff" data-original="#000000" style="" class=""/>
	</g>
</g>
<g xmlns="http://www.w3.org/2000/svg">
</g>
<g xmlns="http://www.w3.org/2000/svg">
</g>
<g xmlns="http://www.w3.org/2000/svg">
</g>
<g xmlns="http://www.w3.org/2000/svg">
</g>
<g xmlns="http://www.w3.org/2000/svg">
</g>
<g xmlns="http://www.w3.org/2000/svg">
</g>
<g xmlns="http://www.w3.org/2000/svg">
</g>
<g xmlns="http://www.w3.org/2000/svg">
</g>
<g xmlns="http://www.w3.org/2000/svg">
</g>
<g xmlns="http://www.w3.org/2000/svg">
</g>
<g xmlns="http://www.w3.org/2000/svg">
</g>
<g xmlns="http://www.w3.org/2000/svg">
</g>
<g xmlns="http://www.w3.org/2000/svg">
</g>
<g xmlns="http://www.w3.org/2000/svg">
</g>
<g xmlns="http://www.w3.org/2000/svg">
</g>
</g></svg>
