<svg id="Capa_1" enable-background="new 0 0 512.742 512.742" height="512" viewBox="0 0 512.742 512.742" width="512" xmlns="http://www.w3.org/2000/svg"><g><g><g><g><path d="m60.914 61.398v450.973h225.914l42.35-227.378-42.35-223.595z" fill="#edf6ff"/><path d="m286.828 77.379h225.914v434.992h-225.914z" fill="#d7e9fe"/></g></g></g><g><path d="m225.914.371h-225.914v77.008l225.914 34.115 14.586-81.123z" fill="#fffe8a"/><path d="m0 77.379v373.965h225.914l42.35-227.378-42.35-146.587z" fill="#ffee42"/></g><g><path d="m451.829.371h-225.915v111.123l225.915-34.115z" fill="#ffee42"/><path d="m225.914 77.379v373.965h125.018c55.723 0 100.896-43.238 100.896-96.575v-277.39z" fill="#fed943"/></g><path d="m371.873 451.344c44.156 0 79.952-35.802 79.953-79.959 0-16.076 0-28.149 0-28.149.085 5.999-1.996 11.526-5.976 15.564-2.585 2.622-7.091 5.747-13.883 5.747h-67.493v65.862c0 11.544-9.384 20.935-20.918 20.935z" fill="#fcbe2c"/><g><g><path d="m100.554 169.423h29.951v29.949h-29.951z" fill="#fd5b94"/></g><g><path d="m100.554 229.322h29.951v29.949h-29.951z" fill="#74e0fc"/></g><g><path d="m100.554 289.22h29.951v29.949h-29.951z" fill="#22d683"/></g><g><path d="m162.753 169.423v29.949h63.161l20.327-14.974-20.327-14.975z" fill="#4a527e"/><path d="m225.914 169.423h109.75v29.949h-109.75z" fill="#2f3161"/><path d="m162.753 229.322v29.949h63.161l20.327-14.975-20.327-14.974z" fill="#4a527e"/><path d="m225.914 229.322h109.75v29.949h-109.75z" fill="#2f3161"/><path d="m162.753 289.22v29.949h63.161l20.327-14.974-20.327-14.975z" fill="#4a527e"/><path d="m225.914 289.22h109.75v29.949h-109.75z" fill="#2f3161"/></g></g></g></svg>